<?xml version="1.0" encoding="UTF-8"?>
<svg version="1.1" xmlns="http://www.w3.org/2000/svg" width="198" height="198">
<path d="M0 0 C1.65 0.33 3.3 0.66 5 1 C5 1.99 5 2.98 5 4 C5.66 4 6.32 4 7 4 C9.49400887 7.7410133 9.74219622 11.66924678 9 16 C6.80436026 21.48438769 3.42485397 25.94258382 -0.5078125 30.29296875 C-2.90500199 33.03530332 -4.92487395 36.00937716 -7 39 C-6.731875 39.53625 -6.46375 40.0725 -6.1875 40.625 C-5.27901377 42.44197245 -4.4114489 44.27945892 -3.5625 46.125 C-2.16681716 49.22547632 -2.16681716 49.22547632 1 51 C7.54919537 61.98574707 11.25254468 75.42621061 8.125 88.0625 C7.55947112 90.21150974 6.9175846 92.20015168 6.0703125 94.2578125 C5.10345039 97.12156598 4.7031387 98.97201472 5 102 C7.82431143 106.82720957 11.29439183 110.82982443 15 115 C16.32 116.65 17.64 118.3 19 120 C19.33 100.2 19.66 80.4 20 60 C25.61 60 31.22 60 37 60 C37 86.73 37 113.46 37 141 C13 141 13 141 7.625 136.3125 C6.37859807 134.2306573 5.1726204 132.12427593 4 130 C2.21900094 127.5866027 0.32413249 125.26875915 -1.5625 122.9375 C-6 117.33457152 -6 117.33457152 -6 115 C-6.75023437 115.54269531 -7.50046875 116.08539063 -8.2734375 116.64453125 C-14.69714948 121.13465738 -20.33828206 124.32052922 -28 126 C-28.60166992 126.17273438 -29.20333984 126.34546875 -29.82324219 126.5234375 C-32.27325023 127.05982329 -34.47704798 127.11294483 -36.984375 127.09765625 C-37.91894531 127.09443359 -38.85351562 127.09121094 -39.81640625 127.08789062 C-40.78449219 127.07951172 -41.75257812 127.07113281 -42.75 127.0625 C-43.73355469 127.05798828 -44.71710938 127.05347656 -45.73046875 127.04882812 C-48.15370791 127.03706483 -50.57682273 127.02062684 -53 127 C-53.02684679 124.35409986 -53.04676357 121.70846904 -53.0625 119.0625 C-53.07087891 118.30775391 -53.07925781 117.55300781 -53.08789062 116.77539062 C-53.09652441 114.85005687 -53.05224333 112.92464419 -53 111 C-52 110 -52 110 -49.91796875 109.88989258 C-49.01691406 109.89142334 -48.11585937 109.8929541 -47.1875 109.89453125 C-46.19363281 109.87970703 -45.19976562 109.86488281 -44.17578125 109.84960938 C-42.08997964 109.82523654 -40.00386207 109.81944393 -37.91796875 109.83398438 C-31.26979515 109.6931694 -27.02759088 108.46745402 -21.546875 104.67456055 C-19.54763538 102.89024323 -19.54763538 102.89024323 -20 99 C-21.57053025 96.28341838 -21.57053025 96.28341838 -23.6875 93.5625 C-24.41453125 92.593125 -25.1415625 91.62375 -25.890625 90.625 C-27.50297528 88.61851965 -29.07061825 86.81956518 -30.9375 85.0625 C-33.10801097 82.89198903 -33.38135052 81.88703089 -34 79 C-34.99 78.67 -35.98 78.34 -37 78 C-38.5078125 76.1015625 -38.5078125 76.1015625 -40.125 73.625 C-42.80235248 69.65728869 -45.62692001 65.93076342 -48.6875 62.25 C-57 52.22109642 -57 52.22109642 -57 49 C-57.598125 48.773125 -58.19625 48.54625 -58.8125 48.3125 C-61 47 -61 47 -64 42 C-64.33 54.87 -64.66 67.74 -65 81 C-59.39 81 -53.78 81 -48 81 C-44.48512848 83.53405499 -43.39926734 84.38811441 -41.375 87.8125 C-40.91867188 88.45509766 -40.46234375 89.09769531 -39.9921875 89.75976562 C-38.7109375 91.64453125 -38.7109375 91.64453125 -37 95 C-37.495 96.485 -37.495 96.485 -38 98 C-46.91 98 -55.82 98 -65 98 C-65 112.19 -65 126.38 -65 141 C-70.61 141 -76.22 141 -82 141 C-82 98.1 -82 55.2 -82 11 C-67 11 -67 11 -62 15 C-60.96986723 16.64821244 -59.96885372 18.31503702 -59 20 C-58.29875 20.70125 -57.5975 21.4025 -56.875 22.125 C-55 24 -55 24 -54 27 C-53.0266574 28.025965 -52.02334369 29.02390181 -51 30 C-50.01624266 31.2156864 -49.05386568 32.44887386 -48.109375 33.6953125 C-47.56756592 34.40743896 -47.02575684 35.11956543 -46.4675293 35.85327148 C-45.90074463 36.60294189 -45.33395996 37.3526123 -44.75 38.125 C-43.58505952 39.6604781 -42.41969837 41.19563715 -41.25390625 42.73046875 C-40.69461426 43.46700684 -40.13532227 44.20354492 -39.55908203 44.96240234 C-37.1134417 48.158662 -34.60392723 51.30361546 -32.07421875 54.43359375 C-31 56 -31 56 -31 58 C-30.01 58.33 -29.02 58.66 -28 59 C-27.0167941 60.39861561 -26.04227376 61.80496988 -25.13330078 63.25292969 C-23.11247638 66.36818591 -20.74960945 69.22316223 -18.4375 72.125 C-17.47747757 73.3356307 -16.51783173 74.54656015 -15.55859375 75.7578125 C-15.11499512 76.31758789 -14.67139648 76.87736328 -14.21435547 77.45410156 C-12.77948819 79.28071587 -11.38023376 81.13180481 -10 83 C-8.68031822 81.89471558 -8.68031822 81.89471558 -8.75 79.125 C-9.01173859 68.43734108 -13.47560192 61.1554976 -20 53 C-21.10908659 51.52451873 -22.21380635 50.04573643 -23.3125 48.5625 C-24.75686317 46.64633912 -26.14823374 44.84207778 -27.79296875 43.08984375 C-29 41 -29 41 -28.4375 38.59375 C-26.82648434 35.68691739 -25.02713134 33.13527074 -23 30.5 C-22.60627197 29.98445557 -22.21254395 29.46891113 -21.80688477 28.93774414 C-20.5439686 27.28707965 -19.27285958 25.64300579 -18 24 C-16.73237311 22.35807958 -15.46544451 20.71562279 -14.19873047 19.07299805 C-13.361085 17.98678299 -12.52287296 16.90100459 -11.68408203 15.81567383 C-7.68119528 10.62135811 -3.82277083 5.32838728 0 0 Z " fill="#08529B" transform="translate(137,44)"/>
<path d="M0 0 C15.51 0 31.02 0 47 0 C56 11 56 11 59 16 C60.43110915 17.79290641 61.89125862 19.56290052 63.375 21.3125 C67.01776548 25.69808063 70.12422096 30.08334552 73 35 C76.74887597 33.75037468 77.39189857 32.39930638 79.625 29.1875 C87.49915474 18.03965821 87.49915474 18.03965821 91.71875 12.8527832 C93.13965061 10.9256256 93.13965061 10.9256256 94.21875 8.19995117 C96.13260048 4.48618412 97.60338562 2.48381404 101 0 C108.76290184 -1.89827651 117.09150076 -1.02696805 125 -0.6875 C127.22774434 -0.63228407 129.45561947 -0.58210078 131.68359375 -0.53710938 C137.12526193 -0.41628048 142.56202412 -0.23260811 148 0 C148.02312343 10.54381312 148.04091509 21.08762025 148.05181217 31.63145351 C148.057041 36.52685374 148.06413864 41.42223668 148.07543945 46.31762695 C148.08626834 51.03787978 148.09227684 55.75811592 148.09487724 60.4783802 C148.09673149 62.28338954 148.10035209 64.08839792 148.10573006 65.89340019 C148.11294052 68.41259644 148.11399094 70.9317229 148.11352539 73.45092773 C148.11712067 74.20474228 148.12071594 74.95855682 148.12442017 75.73521423 C148.11405216 80.88594784 148.11405216 80.88594784 147 82 C145.1796875 82.1328125 145.1796875 82.1328125 142.875 82.125 C141.75738281 82.12886719 141.75738281 82.12886719 140.6171875 82.1328125 C137.39344406 81.96921955 134.19544969 81.45649281 131 81 C131 59.55 131 38.1 131 16 C120.605 16.495 120.605 16.495 110 17 C108.68 18.98 107.36 20.96 106 23 C104.80113791 24.62131518 103.58641224 26.23103034 102.35546875 27.828125 C101.33936523 29.15263672 101.33936523 29.15263672 100.30273438 30.50390625 C98.90449565 32.31916354 97.50606155 34.13427037 96.10742188 35.94921875 C92.10121162 41.17207375 88.23579771 46.45217803 84.53637695 51.89746094 C83.14139628 53.80649853 81.6780452 55.34673666 80 57 C78.63988391 58.98188345 77.30208796 60.97951869 76 63 C74.25 62.875 74.25 62.875 72 62 C70.59886384 60.04690112 69.26660533 58.04291182 68 56 C67.00823004 54.99183715 66.00743463 53.99250968 65 53 C61.36240041 48.59706386 57.98137555 44.01974419 54.75 39.3125 C51.28104682 34.28686396 47.53323116 29.5088233 43.73144531 24.73364258 C41.71933508 22.20422437 39.79418872 19.69128309 38 17 C31.07 16.67 24.14 16.34 17 16 C17 68.47 17 120.94 17 175 C11.39 175 5.78 175 0 175 C0 117.25 0 59.5 0 0 Z " fill="#0F5192" transform="translate(26,10)"/>
<path d="M0 0 C15 0 15 0 20 4 C20.90657821 6.74477823 20.85364694 9.07293881 21 12 C21.66 12 22.32 12 23 12 C25.68639502 14.93061274 27.1725333 17.13848874 28 21 C28.66 21.33 29.32 21.66 30 22 C29.75 24.375 29.75 24.375 29 27 C26.9375 28.3125 26.9375 28.3125 25 29 C25 29.99 25 30.98 25 32 C23.0625 31.1875 23.0625 31.1875 21 30 C20.67 29.01 20.34 28.02 20 27 C18.68 27 17.36 27 16 27 C16 41.52 16 56.04 16 71 C22.27 71 28.54 71 35 71 C42.57533995 78.65109335 42.57533995 78.65109335 45 84 C44.505 85.485 44.505 85.485 44 87 C35.09 87 26.18 87 17 87 C17 101.19 17 115.38 17 130 C11.39 130 5.78 130 0 130 C0 87.1 0 44.2 0 0 Z " fill="#0C4F93" transform="translate(55,55)"/>
<path d="M0 0 C14.19 0 28.38 0 43 0 C43 1.32 43 2.64 43 4 C43.66 4.33 44.32 4.66 45 5 C45 4.01 45 3.02 45 2 C48.79379058 3.49041773 50.68343758 5.69062512 53 9 C53 9.66 53 10.32 53 11 C51.9171875 10.9690625 51.9171875 10.9690625 50.8125 10.9375 C45.93332161 11.04592619 43.3838715 11.46231616 40 15 C39.01 15 38.02 15 37 15 C37 14.01 37 13.02 37 12 C29.08 12.33 21.16 12.66 13 13 C12.67 65.47 12.34 117.94 12 172 C8.04 172 4.08 172 0 172 C0 115.24 0 58.48 0 0 Z " fill="#024F9D" transform="translate(29,12)"/>
<path d="M0 0 C2.60173635 -0.14701841 5.15837691 -0.12622673 7.76333618 -0.05355835 C9.18861382 -0.04294624 9.18861382 -0.04294624 10.64268494 -0.03211975 C13.67979419 -0.0041138 16.71506479 0.05863646 19.75161743 0.1222229 C21.80953353 0.14729774 23.8674785 0.17011232 25.92544556 0.19058228 C30.97237877 0.24573335 36.01793631 0.33204908 41.06411743 0.4347229 C41.08748118 8.52022215 41.10515322 16.60570686 41.1159296 24.69123173 C41.1211066 28.44729381 41.12810772 32.20333249 41.13955688 35.9593811 C41.15057296 39.59689495 41.15643308 43.23438655 41.15899467 46.87191582 C41.16081573 48.24669176 41.16436987 49.62146675 41.16984749 50.99623299 C41.20624921 60.52780393 40.81110268 69.93746001 40.06411743 79.4347229 C31.31411743 79.5597229 31.31411743 79.5597229 29.06411743 78.4347229 C27.71978524 71.40919514 27.93594025 64.31345978 27.96646118 57.1847229 C27.96787613 55.93086792 27.96929108 54.67701294 27.9707489 53.38516235 C27.97537662 50.07754323 27.9843364 46.76997427 27.99545288 43.46237183 C28.00574567 40.07685974 28.01031834 36.69134005 28.01528931 33.30581665 C28.02542975 26.68207917 28.04501048 20.0584648 28.06411743 13.4347229 C19.81411743 13.4347229 11.56411743 13.4347229 3.06411743 13.4347229 C3.06411743 14.0947229 3.06411743 14.7547229 3.06411743 15.4347229 C0.4375581 15.07978245 -1.51556518 14.71010326 -3.74838257 13.2472229 C-5.53359395 10.52242657 -5.31913203 8.62846844 -4.93588257 5.4347229 C-3.9197554 2.48262599 -3.19430752 0.71731553 0 0 Z " fill="#024E9A" transform="translate(131.93588256835938,10.565277099609375)"/>
<path d="M0 0 C5.875 4.625 5.875 4.625 7 8 C7.9733426 9.025965 8.97665631 10.02390181 10 11 C10.98375734 12.2156864 11.94613432 13.44887386 12.890625 14.6953125 C13.70333862 15.7635022 13.70333862 15.7635022 14.5324707 16.85327148 C15.09925537 17.60294189 15.66604004 18.3526123 16.25 19.125 C17.41494048 20.6604781 18.58030163 22.19563715 19.74609375 23.73046875 C20.58503174 24.83527588 20.58503174 24.83527588 21.44091797 25.96240234 C23.8865583 29.158662 26.39607277 32.30361546 28.92578125 35.43359375 C30 37 30 37 30 39 C30.99 39.33 31.98 39.66 33 40 C33.9458089 41.35115557 34.88106786 42.71144931 35.75 44.11328125 C37.81401248 47.22865008 40.2378286 50.0645016 42.609375 52.94921875 C44 55 44 55 44 58 C42.3203125 59.17578125 42.3203125 59.17578125 40.125 60.3125 C36.85563918 62.20711192 36.12791896 62.7175123 34.5 66.3125 C34.335 67.199375 34.17 68.08625 34 69 C29.97449681 67.6581656 29.11714364 65.5772427 27 62 C27 61.34 27 60.68 27 60 C25.515 59.505 25.515 59.505 24 59 C22.4921875 57.1015625 22.4921875 57.1015625 20.875 54.625 C18.19764752 50.65728869 15.37307999 46.93076342 12.3125 43.25 C4 33.22109642 4 33.22109642 4 30 C3.401875 29.773125 2.80375 29.54625 2.1875 29.3125 C0 28 0 28 -3 23 C-3.33 35.87 -3.66 48.74 -4 62 C1.61 62 7.22 62 13 62 C13 62.33 13 62.66 13 63 C7.06 63 1.12 63 -5 63 C-5 48.48 -5 33.96 -5 19 C-1 19 -1 19 1.75 21.5 C2.4925 22.325 3.235 23.15 4 24 C3.67 22.68 3.34 21.36 3 20 C3.61875 19.938125 4.2375 19.87625 4.875 19.8125 C7.27761141 19.171081 7.27761141 19.171081 8.25 16.4375 C8.62125 15.2309375 8.62125 15.2309375 9 14 C7.68 13.34 6.36 12.68 5 12 C5 10.35 5 8.7 5 7 C4.01 6.67 3.02 6.34 2 6 C2 5.34 2 4.68 2 4 C1.34 4 0.68 4 0 4 C0 2.68 0 1.36 0 0 Z " fill="#185CA0" transform="translate(76,63)"/>
<path d="M0 0 C15.51 0 31.02 0 47 0 C47.66 1.32 48.32 2.64 49 4 C48.67 4.99 48.34 5.98 48 7 C47.01 6.67 46.02 6.34 45 6 C45.33 4.68 45.66 3.36 46 2 C31.81 2 17.62 2 3 2 C3 58.76 3 115.52 3 174 C6.96 174 10.92 174 15 174 C15 121.53 15 69.06 15 15 C15.33 15 15.66 15 16 15 C16 67.8 16 120.6 16 175 C10.72 175 5.44 175 0 175 C0 117.25 0 59.5 0 0 Z " fill="#1F4871" transform="translate(26,10)"/>
<path d="M0 0 C3.53099565 2.72849664 5.16433434 4.84137608 6.125 9.125 C6.95854972 12.8164345 7.23556526 13.73818976 10 16 C10 16.66 10 17.32 10 18 C10.66 18.33 11.32 18.66 12 19 C10.95902388 22.86648272 9.96301592 26.49461443 8 30 C6.35 29.67 4.7 29.34 3 29 C3 28.34 3 27.68 3 27 C2.01 26.67 1.02 26.34 0 26 C0 25.34 0 24.68 0 24 C-0.99 24 -1.98 24 -3 24 C-4.92240157 21.8544094 -6.65256914 19.73485035 -8.375 17.4375 C-8.84421875 16.82841797 -9.3134375 16.21933594 -9.796875 15.59179688 C-12.96378131 11.45819679 -15.9700616 7.24191376 -19 3 C-25.93 2.67 -32.86 2.34 -40 2 C-40 54.47 -40 106.94 -40 161 C-40.33 161 -40.66 161 -41 161 C-41 107.87 -41 54.74 -41 0 C-33.08 0 -25.16 0 -17 0 C-17 0.99 -17 1.98 -17 3 C-15.35 2.67 -13.7 2.34 -12 2 C-11.67 1.01 -11.34 0.02 -11 -1 C-6.68631612 -2.26873055 -4.0800669 -1.87003066 0 0 Z " fill="#4D81B3" transform="translate(83,24)"/>
<path d="M0 0 C5.61 0 11.22 0 17 0 C17 26.73 17 53.46 17 81 C16.67 81 16.34 81 16 81 C15.67 54.93 15.34 28.86 15 2 C11.04 2 7.08 2 3 2 C3.03029297 3.52286621 3.06058594 5.04573242 3.09179688 6.61474609 C3.20460637 12.29897156 3.31611616 17.98322193 3.42724609 23.66748047 C3.4753975 26.12126343 3.52389495 28.57503962 3.57275391 31.02880859 C3.64317741 34.56866739 3.71233033 38.10854915 3.78125 41.6484375 C3.80312378 42.73426117 3.82499756 43.82008484 3.84753418 44.93881226 C3.9698292 51.29353961 4.02787911 57.64411661 4 64 C2.66666667 64 1.33333333 64 0 64 C0 42.88 0 21.76 0 0 Z " fill="#3D6287" transform="translate(157,104)"/>
<path d="M0 0 C0.33 0 0.66 0 1 0 C1.02312343 10.54381312 1.04091509 21.08762025 1.05181217 31.63145351 C1.057041 36.52685374 1.06413864 41.42223668 1.07543945 46.31762695 C1.08626834 51.03787978 1.09227684 55.75811592 1.09487724 60.4783802 C1.09673149 62.28338954 1.10035209 64.08839792 1.10573006 65.89340019 C1.11294052 68.41259644 1.11399094 70.9317229 1.11352539 73.45092773 C1.11712067 74.20474228 1.12071594 74.95855682 1.12442017 75.73521423 C1.11405216 80.88594784 1.11405216 80.88594784 0 82 C-1.85546875 82.1328125 -1.85546875 82.1328125 -4.1875 82.125 C-5.32251953 82.12886719 -5.32251953 82.12886719 -6.48046875 82.1328125 C-9.37319337 81.98032779 -12.14757884 81.49341031 -15 81 C-15.02314315 72.68998125 -15.04092518 64.37997592 -15.05181217 56.06993294 C-15.05703667 52.2114867 -15.06412649 48.35306247 -15.07543945 44.49462891 C-15.08628368 40.7728847 -15.09228011 37.0511617 -15.09487724 33.32940292 C-15.09672871 31.90759828 -15.10034403 30.48579483 -15.10573006 29.06399918 C-15.11296072 27.0766945 -15.11340823 25.08936861 -15.11352539 23.10205078 C-15.115746 21.96953888 -15.11796661 20.83702698 -15.12025452 19.67019653 C-15 17 -15 17 -14 15 C-21.26 15 -28.52 15 -36 15 C-36 14.67 -36 14.34 -36 14 C-28.41 14 -20.82 14 -13 14 C-12.67 35.45 -12.34 56.9 -12 79 C-8.37 79.33 -4.74 79.66 -1 80 C-0.67 53.6 -0.34 27.2 0 0 Z " fill="#4977A6" transform="translate(173,10)"/>
<path d="M0 0 C2.475 0.99 2.475 0.99 5 2 C5.06058594 2.63808594 5.12117187 3.27617188 5.18359375 3.93359375 C5.26738281 4.75988281 5.35117188 5.58617188 5.4375 6.4375 C5.51871094 7.26121094 5.59992188 8.08492187 5.68359375 8.93359375 C5.78930815 10.98662025 5.78930815 10.98662025 7 12 C7.04092937 14.33297433 7.04241723 16.66705225 7 19 C6.34 19 5.68 19 5 19 C5 19.66 5 20.32 5 21 C4.01 21 3.02 21 2 21 C1.67 23.31 1.34 25.62 1 28 C0.38125 28.144375 -0.2375 28.28875 -0.875 28.4375 C-3.03258322 28.93152225 -3.03258322 28.93152225 -5 30 C-5.74062731 25.18592246 -5.98870632 20.74801624 -5.8125 15.875 C-5.73820016 10.53892051 -6.4712191 7.96987851 -10 4 C-8.02 3.34 -6.04 2.68 -4 2 C-3.67 2.66 -3.34 3.32 -3 4 C-2.34 4 -1.68 4 -1 4 C-0.67 2.68 -0.34 1.36 0 0 Z " fill="#034F9C" transform="translate(136,100)"/>
<path d="M0 0 C0.99 0 1.98 0 3 0 C3.33 0.99 3.66 1.98 4 3 C4.515625 3.515625 5.03125 4.03125 5.5625 4.5625 C6.036875 5.036875 6.51125 5.51125 7 6 C7 6.66 7 7.32 7 8 C7.66 8.33 8.32 8.66 9 9 C7.95902388 12.86648272 6.96301592 16.49461443 5 20 C3.35 19.67 1.7 19.34 0 19 C0 18.34 0 17.68 0 17 C-0.99 16.67 -1.98 16.34 -3 16 C-3 15.34 -3 14.68 -3 14 C-3.99 13.67 -4.98 13.34 -6 13 C-5.34 13 -4.68 13 -4 13 C-4 12.01 -4 11.02 -4 10 C-4.99 10 -5.98 10 -7 10 C-7 9.34 -7 8.68 -7 8 C-6.030625 7.195625 -5.06125 6.39125 -4.0625 5.5625 C-0.80624673 3.29315623 -0.80624673 3.29315623 0 0 Z " fill="#024D99" transform="translate(86,34)"/>
<path d="M0 0 C2.64 0 5.28 0 8 0 C7.03320312 0.30550781 7.03320312 0.30550781 6.046875 0.6171875 C3.68846128 1.8667935 3.68846128 1.8667935 3.390625 4.8203125 C3.34421875 5.91085938 3.2978125 7.00140625 3.25 8.125 C3.19328125 9.22070312 3.1365625 10.31640625 3.078125 11.4453125 C3.05234375 12.28835937 3.0265625 13.13140625 3 14 C3.969375 13.835 4.93875 13.67 5.9375 13.5 C8.87360151 13.06524258 11.6594398 12.98798844 14.625 13.0625 C18.19270334 13.11738774 20.77469839 12.6646718 24 11 C24 10.01 24 9.02 24 8 C25.875 7.375 25.875 7.375 28 7 C28.66 7.66 29.32 8.32 30 9 C29.4375 11.375 29.4375 11.375 28 14 C22.06778735 16.36012761 16.37727675 16.23722433 10.0625 16.125 C9.09248047 16.11597656 8.12246094 16.10695312 7.12304688 16.09765625 C4.74859002 16.07426259 2.37426162 16.03839776 0 16 C0 10.72 0 5.44 0 0 Z " fill="#1B5593" transform="translate(84,155)"/>
<path d="M0 0 C0.33 0 0.66 0 1 0 C1 24.75 1 49.5 1 75 C-6.59 75 -14.18 75 -22 75 C-24.90501139 72.09498861 -25.29209703 71.6574987 -26 68 C-26.33 67.34 -26.66 66.68 -27 66 C-23.64379729 67.38877354 -21.92701272 68.91677965 -20 72 C-20 72.66 -20 73.32 -20 74 C-13.4 74 -6.8 74 0 74 C0 49.58 0 25.16 0 0 Z " fill="#0C4988" transform="translate(172,110)"/>
<path d="M0 0 C3.18094931 1.09687907 3.95577313 1.92005143 5.625 4.9375 C6.07875 5.948125 6.5325 6.95875 7 8 C9.0072908 11.0109362 9.83884224 11.63016497 13 13 C13 14.32 13 15.64 13 17 C13.99 17.33 14.98 17.66 16 18 C18.89019898 21.00814041 19.36470151 23.09044671 19.29296875 27.203125 C19.28330078 28.1828125 19.27363281 29.1625 19.26367188 30.171875 C19.23853516 31.18765625 19.21339844 32.2034375 19.1875 33.25 C19.16719727 34.796875 19.16719727 34.796875 19.14648438 36.375 C19.11117607 38.91719792 19.06186036 41.45833223 19 44 C17.515 43.505 17.515 43.505 16 43 C16.03480469 42.26136719 16.06960937 41.52273437 16.10546875 40.76171875 C16.50921716 25.63076627 11.75853301 16.79201677 2 5.5 C0 3 0 3 0 0 Z " fill="#325C86" transform="translate(112,88)"/>
<path d="M0 0 C1.52091499 0.01485695 1.52091499 0.01485695 3.07255554 0.03001404 C6.30376239 0.06912839 9.53154299 0.15694734 12.76171875 0.24609375 C14.95502898 0.28121131 17.14839259 0.31314953 19.34179688 0.34179688 C24.71210193 0.41887937 30.0804156 0.53593648 35.44921875 0.68359375 C35.44921875 1.01359375 35.44921875 1.34359375 35.44921875 1.68359375 C21.25921875 1.68359375 7.06921875 1.68359375 -7.55078125 1.68359375 C-8.21078125 3.00359375 -8.87078125 4.32359375 -9.55078125 5.68359375 C-10.21078125 5.68359375 -10.87078125 5.68359375 -11.55078125 5.68359375 C-11.70546875 6.51890625 -11.70546875 6.51890625 -11.86328125 7.37109375 C-12.69089526 10.15488633 -13.92815877 12.28211248 -15.55078125 14.68359375 C-16.54078125 15.17859375 -16.54078125 15.17859375 -17.55078125 15.68359375 C-18.20291417 17.7082263 -18.20291417 17.7082263 -18.55078125 19.68359375 C-19.21078125 19.68359375 -19.87078125 19.68359375 -20.55078125 19.68359375 C-20.06844579 14.61907146 -18.54466019 11.75859565 -15.55078125 7.68359375 C-15.23973953 7.08751816 -14.92869781 6.49144257 -14.60823059 5.87730408 C-11.00889171 -0.50731998 -6.86739154 -0.25307544 0 0 Z " fill="#305D88" transform="translate(137.55078125,9.31640625)"/>
<path d="M0 0 C2.58270042 0.36506525 3.69795447 0.61405293 5.3359375 2.70703125 C5.67882812 3.40183594 6.02171875 4.09664062 6.375 4.8125 C6.91253906 5.84310547 6.91253906 5.84310547 7.4609375 6.89453125 C8 9 8 9 7.20703125 11.1640625 C4.3941987 15.44248095 -0.23833736 17.47078843 -5 19 C-7.76218441 19.23018203 -10.25669087 19.3340861 -13 19.25 C-13.67289063 19.24484375 -14.34578125 19.2396875 -15.0390625 19.234375 C-19.44585136 19.16631648 -23.66123141 18.70053035 -28 18 C-28 17.67 -28 17.34 -28 17 C-27.35039307 17.00112793 -26.70078613 17.00225586 -26.03149414 17.00341797 C-23.04081947 16.99118835 -20.05261597 16.93337932 -17.0625 16.875 C-16.04091797 16.87757813 -15.01933594 16.88015625 -13.96679688 16.8828125 C-7.31300923 16.71274764 -3.02977708 15.46697897 2.45532227 11.67236328 C4.45233815 9.88970128 4.45233815 9.88970128 4 6 C2.07706482 2.78170896 2.07706482 2.78170896 0 0 Z " fill="#5A82A7" transform="translate(113,137)"/>
<path d="M0 0 C5.13403862 9.7993172 6.74326457 20.21845137 3.64453125 30.94140625 C3.32548828 31.96041016 3.32548828 31.96041016 3 33 C2.73574219 33.89589844 2.47148437 34.79179687 2.19921875 35.71484375 C1.47931936 38.14748956 0.74537061 40.57506095 0 43 C-0.33 43 -0.66 43 -1 43 C-1 40.36 -1 37.72 -1 35 C-0.34 35 0.32 35 1 35 C2.13100345 25.50764963 2.73778592 17.24002748 0 8 C-0.16210552 5.30618761 -0.09481509 2.70223013 0 0 Z " fill="#4472A2" transform="translate(141,103)"/>
<path d="M0 0 C14.85 0 29.7 0 45 0 C45.66 1.32 46.32 2.64 47 4 C46.67 4.99 46.34 5.98 46 7 C45.01 6.67 44.02 6.34 43 6 C43.33 4.35 43.66 2.7 44 1 C29.48 1 14.96 1 0 1 C0 0.67 0 0.34 0 0 Z " fill="#336492" transform="translate(28,10)"/>
<path d="M0 0 C2.64 0 5.28 0 8 0 C7.03320312 0.30550781 7.03320312 0.30550781 6.046875 0.6171875 C3.68846128 1.8667935 3.68846128 1.8667935 3.390625 4.8203125 C3.34421875 5.91085938 3.2978125 7.00140625 3.25 8.125 C3.19328125 9.22070312 3.1365625 10.31640625 3.078125 11.4453125 C3.05234375 12.28835937 3.0265625 13.13140625 3 14 C3.66 14.33 4.32 14.66 5 15 C3.35 15.33 1.7 15.66 0 16 C0 10.72 0 5.44 0 0 Z " fill="#264C73" transform="translate(84,155)"/>
<path d="M0 0 C2.6875 0.875 2.6875 0.875 5 2 C5 2.99 5 3.98 5 5 C4.2678125 5.103125 3.535625 5.20625 2.78125 5.3125 C-0.257724 6.06370706 -1.98877521 7.16079311 -4.5 9 C-7.6855367 11.33306913 -10.07338693 12.44695591 -14 13 C-13.67 12.34 -13.34 11.68 -13 11 C-12.01 11 -11.02 11 -10 11 C-10 10.01 -10 9.02 -10 8 C-8.68 8 -7.36 8 -6 8 C-6 7.34 -6 6.68 -6 6 C-5.34 6 -4.68 6 -4 6 C-3.896875 5.38125 -3.79375 4.7625 -3.6875 4.125 C-3 2 -3 2 0 0 Z " fill="#1F5B94" transform="translate(128,155)"/>
<path d="M0 0 C5.875 4.625 5.875 4.625 7 8 C7.45375 8.45375 7.9075 8.9075 8.375 9.375 C10.36645127 11.36645127 11.61496324 13.55969715 13 16 C12.34 16.33 11.68 16.66 11 17 C11 16.34 11 15.68 11 15 C9.02 14.34 7.04 13.68 5 13 C5 11.02 5 9.04 5 7 C4.01 6.67 3.02 6.34 2 6 C2 5.34 2 4.68 2 4 C1.34 4 0.68 4 0 4 C0 2.68 0 1.36 0 0 Z " fill="#3A6D9E" transform="translate(76,63)"/>
<path d="M0 0 C3.35620271 1.38877354 5.07298728 2.91677965 7 6 C7 6.66 7 7.32 7 8 C13.93 8 20.86 8 28 8 C28 8.33 28 8.66 28 9 C24.22931168 9.086985 20.45888068 9.14038579 16.6875 9.1875 C15.61564453 9.21263672 14.54378906 9.23777344 13.43945312 9.26367188 C12.41142578 9.27333984 11.38339844 9.28300781 10.32421875 9.29296875 C9.37635498 9.3086792 8.42849121 9.32438965 7.4519043 9.34057617 C5 9 5 9 3.20629883 7.6105957 C1.81323101 5.75063448 1.43835593 4.26483895 1 2 C0.67 1.34 0.34 0.68 0 0 Z " fill="#2C6196" transform="translate(145,176)"/>
<path d="M0 0 C0.66 0 1.32 0 2 0 C2.33 0.66 2.66 1.32 3 2 C3.33 1.34 3.66 0.68 4 0 C5.32 0.66 6.64 1.32 8 2 C7.67 2.99 7.34 3.98 7 5 C6.34 5 5.68 5 5 5 C5 5.66 5 6.32 5 7 C5.99 7 6.98 7 8 7 C8 7.99 8 8.98 8 10 C4.20401451 8.50871999 2.28279601 6.34266559 0 3 C0 2.01 0 1.02 0 0 Z " fill="#2D659F" transform="translate(74,37)"/>
<path d="M0 0 C0.33 0 0.66 0 1 0 C1 8 1 8 -1 11 C-2.65 10.67 -4.3 10.34 -6 10 C-6 8.33333333 -6 6.66666667 -6 5 C-4.02 4.67 -2.04 4.34 0 4 C0 2.68 0 1.36 0 0 Z " fill="#03478C" transform="translate(128,126)"/>
<path d="M0 0 C0.33 1.32 0.66 2.64 1 4 C0.34 4 -0.32 4 -1 4 C-0.67 4.99 -0.34 5.98 0 7 C-1.65 7.33 -3.3 7.66 -5 8 C-5 8.66 -5 9.32 -5 10 C-5.66 10 -6.32 10 -7 10 C-7.33 10.99 -7.66 11.98 -8 13 C-8.8125 11.375 -8.8125 11.375 -9 9 C-5 3.33333333 -5 3.33333333 -1 2 C-0.67 1.34 -0.34 0.68 0 0 Z " fill="#275482" transform="translate(129,57)"/>
<path d="M0 0 C3.92488093 3.70060202 7.02215543 7.4906925 10 12 C10 12.66 10 13.32 10 14 C9.01 14 8.02 14 7 14 C7 13.01 7 12.02 7 11 C6.34 11 5.68 11 5 11 C4.896875 10.360625 4.79375 9.72125 4.6875 9.0625 C4.460625 8.381875 4.23375 7.70125 4 7 C3.01 6.67 2.02 6.34 1 6 C0.67 4.02 0.34 2.04 0 0 Z " fill="#3B699C" transform="translate(88,31)"/>
<path d="M0 0 C0.99 0.66 1.98 1.32 3 2 C3.29296875 4.1640625 3.29296875 4.1640625 3.1875 6.625 C3.16042969 7.44226563 3.13335937 8.25953125 3.10546875 9.1015625 C3.07066406 9.72804688 3.03585938 10.35453125 3 11 C2.34 10.67 1.68 10.34 1 10 C1 9.34 1 8.68 1 8 C0.01 7.67 -0.98 7.34 -2 7 C-3.1875 4.4375 -3.1875 4.4375 -4 2 C-3.34 2 -2.68 2 -2 2 C-1.67 2.66 -1.34 3.32 -1 4 C-0.67 2.68 -0.34 1.36 0 0 Z " fill="#366897" transform="translate(102,115)"/>
<path d="M0 0 C0.66 0 1.32 0 2 0 C2.22058508 4.59092706 1.5361591 8.05455252 0 12.375 C-0.37125 13.43460938 -0.7425 14.49421875 -1.125 15.5859375 C-1.41375 16.38257813 -1.7025 17.17921875 -2 18 C-2.33 18 -2.66 18 -3 18 C-3 15.36 -3 12.72 -3 10 C-2.34 10 -1.68 10 -1 10 C-0.67 6.7 -0.34 3.4 0 0 Z " fill="#5381AC" transform="translate(143,128)"/>
<path d="M0 0 C3.10726115 1.07146936 3.92015996 1.85029993 5.5 4.8125 C5.995 5.864375 6.49 6.91625 7 8 C8.29241051 9.69859667 9.61490475 11.37609523 11 13 C10.67 13.66 10.34 14.32 10 15 C8.32416834 13.06980103 6.65942545 11.13171873 5 9.1875 C4.52304688 8.64029297 4.04609375 8.09308594 3.5546875 7.52929688 C0 3.33984375 0 3.33984375 0 0 Z " fill="#66819E" transform="translate(112,88)"/>
<path d="M0 0 C1 3 1 3 0.9375 5.4375 C1.00471291 8.19322942 1.61086976 9.65584273 3 12 C0 11 0 11 -1.203125 9.22265625 C-1.54859375 8.50980469 -1.8940625 7.79695313 -2.25 7.0625 C-2.60578125 6.35222656 -2.9615625 5.64195313 -3.328125 4.91015625 C-3.54984375 4.27980469 -3.7715625 3.64945312 -4 3 C-3 1 -3 1 0 0 Z " fill="#3B6CA0" transform="translate(83,89)"/>
<path d="M0 0 C0.66 0 1.32 0 2 0 C2.2475 0.639375 2.495 1.27875 2.75 1.9375 C3.81562433 4.18741541 3.81562433 4.18741541 6.125 4.75 C6.74375 4.8325 7.3625 4.915 8 5 C8 4.01 8 3.02 8 2 C8.99 1.67 9.98 1.34 11 1 C10.38722388 3.96175123 9.74627478 5.38058783 8 8 C6.25 7.875 6.25 7.875 4 7 C0 1.66666667 0 1.66666667 0 0 Z " fill="#6480A1" transform="translate(94,65)"/>
<path d="M0 0 C1.65 0.33 3.3 0.66 5 1 C5 1.99 5 2.98 5 4 C5.66 4 6.32 4 7 4 C6.67 4.66 6.34 5.32 6 6 C5.01 5.67 4.02 5.34 3 5 C3 4.34 3 3.68 3 3 C2.34 3 1.68 3 1 3 C1 3.66 1 4.32 1 5 C0.01 5 -0.98 5 -2 5 C-1.34 3.35 -0.68 1.7 0 0 Z " fill="#597C9E" transform="translate(137,44)"/>
<path d="M0 0 C0.99 0.33 1.98 0.66 3 1 C1.86500606 4.29148243 1.00716624 4.9959869 -2.125 6.75 C-3.548125 7.36875 -3.548125 7.36875 -5 8 C-3.8141763 4.62496331 -2.72426311 2.35277269 0 0 Z " fill="#4570A2" transform="translate(115,74)"/>
<path d="M0 0 C0.33 0.66 0.66 1.32 1 2 C0.0625 4.625 0.0625 4.625 -1 7 C-1.66 7 -2.32 7 -3 7 C-3.33 8.65 -3.66 10.3 -4 12 C-4.66 10.68 -5.32 9.36 -6 8 C-4.02 5.36 -2.04 2.72 0 0 Z " fill="#456D97" transform="translate(117,24)"/>
<path d="M0 0 C3.82524236 1.450954 5.19090966 3.38181932 7 7 C7 7.66 7 8.32 7 9 C5.1875 8.875 5.1875 8.875 3 8 C0 2.96428571 0 2.96428571 0 0 Z " fill="#4D79A5" transform="translate(134,93)"/>
<path d="M0 0 C3.28788824 3.11016455 5.83735988 6.01618925 8 10 C6.68 9.67 5.36 9.34 4 9 C4 8.34 4 7.68 4 7 C3.01 7 2.02 7 1 7 C0.67 4.69 0.34 2.38 0 0 Z " fill="#5380AD" transform="translate(112,109)"/>
<path d="M0 0 C0.66 0 1.32 0 2 0 C2 0.66 2 1.32 2 2 C6.14093698 2.20970559 6.14093698 2.20970559 10 1 C9.67 2.65 9.34 4.3 9 6 C8.01 6 7.02 6 6 6 C6 5.34 6 4.68 6 4 C4.02 4 2.04 4 0 4 C0 2.68 0 1.36 0 0 Z " fill="#29649B" transform="translate(93,43)"/>
<path d="M0 0 C1.5625 1 1.5625 1 3 3 C2.96726452 5.76614782 2.49404328 8.26030547 2 11 C1.01 11 0.02 11 -1 11 C-1.08912219 7.16774573 -0.87867729 3.73437848 0 0 Z " fill="#145BA2" transform="translate(149,157)"/>
<path d="M0 0 C5.78461538 4.43076923 5.78461538 4.43076923 6.875 7.3125 C6.936875 8.1478125 6.936875 8.1478125 7 9 C6.34 9 5.68 9 5 9 C5 8.34 5 7.68 5 7 C4.01 6.67 3.02 6.34 2 6 C2 5.34 2 4.68 2 4 C1.34 4 0.68 4 0 4 C0 2.68 0 1.36 0 0 Z " fill="#5381A6" transform="translate(76,63)"/>
<path d="M0 0 C0.99 0.66 1.98 1.32 3 2 C2.67 2.66 2.34 3.32 2 4 C1.01 4 0.02 4 -1 4 C-1 4.66 -1 5.32 -1 6 C-2.32 5.67 -3.64 5.34 -5 5 C-5 4.34 -5 3.68 -5 3 C-2.5 1.375 -2.5 1.375 0 0 Z " fill="#0C51A0" transform="translate(103,63)"/>
<path d="M0 0 C0.66 0 1.32 0 2 0 C1.67 2.31 1.34 4.62 1 7 C0.01 6.67 -0.98 6.34 -2 6 C-2.6875 3.9375 -2.6875 3.9375 -3 2 C-2.01 2 -1.02 2 0 2 C0 1.34 0 0.68 0 0 Z " fill="#064B91" transform="translate(138,47)"/>
<path d="M0 0 C0 3 0 6 0 9 C-0.99 8.67 -1.98 8.34 -3 8 C-3.33 6.35 -3.66 4.7 -4 3 C-2.68 2.01 -1.36 1.02 0 0 Z " fill="#3269A0" transform="translate(71,25)"/>
<path d="M0 0 C3.33523252 1.38009621 5.18607951 2.84950652 7 6 C6.67 6.99 6.34 7.98 6 9 C2.17808219 6.53424658 2.17808219 6.53424658 1.3125 3.9375 C1.209375 3.298125 1.10625 2.65875 1 2 C0.67 1.34 0.34 0.68 0 0 Z " fill="#21486F" transform="translate(145,176)"/>
<path d="M0 0 C2.45634954 4.73724554 4.31057116 8.56500474 4 14 C3.71125 13.38125 3.4225 12.7625 3.125 12.125 C2.06279958 9.86674235 2.06279958 9.86674235 0 8 C-0.26991906 5.31160615 -0.08737357 2.70858064 0 0 Z " fill="#5482A6" transform="translate(141,103)"/>
<path d="M0 0 C0.66 0.33 1.32 0.66 2 1 C1.3125 3.875 1.3125 3.875 0 7 C-2.625 8.375 -2.625 8.375 -5 9 C-3.50163895 5.88801935 -1.80066242 2.9465385 0 0 Z " fill="#507596" transform="translate(108,35)"/>
<path d="M0 0 C1.32 0 2.64 0 4 0 C6.125 4.625 6.125 4.625 5 8 C4.16382818 6.8562364 3.33113541 5.70992861 2.5 4.5625 C2.0359375 3.92441406 1.571875 3.28632812 1.09375 2.62890625 C0 1 0 1 0 0 Z " fill="#446F9B" transform="translate(71,82)"/>
<path d="M0 0 C2.475 0.99 2.475 0.99 5 2 C5 3.65 5 5.3 5 7 C4.01 7 3.02 7 2 7 C0.5393715 4.35261084 0 3.10551666 0 0 Z " fill="#36608E" transform="translate(90,58)"/>
<path d="M0 0 C0.66 0.33 1.32 0.66 2 1 C-0.475 4.465 -0.475 4.465 -3 8 C-5 4.25 -5 4.25 -5 2 C-4.360625 1.855625 -3.72125 1.71125 -3.0625 1.5625 C-1.02454854 1.18992819 -1.02454854 1.18992819 0 0 Z " fill="#5384B2" transform="translate(129,33)"/>
<path d="M0 0 C-1.45264038 0.8638129 -2.9123163 1.71580454 -4.375 2.5625 C-5.59316406 3.27599609 -5.59316406 3.27599609 -6.8359375 4.00390625 C-7.55007812 4.33261719 -8.26421875 4.66132813 -9 5 C-9.66 4.67 -10.32 4.34 -11 4 C-9.68 3.67 -8.36 3.34 -7 3 C-7 2.01 -7 1.02 -7 0 C-3.98968256 -0.93423645 -3.13349732 -1.04449911 0 0 Z " fill="#6B91BB" transform="translate(125,163)"/>
<path d="M0 0 C1.65 1.65 3.3 3.3 5 5 C3.25 8.875 3.25 8.875 1 10 C1.020625 8.906875 1.04125 7.81375 1.0625 6.6875 C1.18544452 3.05615809 1.18544452 3.05615809 0 0 Z " fill="#5A89B0" transform="translate(129,85)"/>
<path d="M0 0 C2.475 0.99 2.475 0.99 5 2 C5 2.99 5 3.98 5 5 C3.35 5 1.7 5 0 5 C-0.5625 3.0625 -0.5625 3.0625 -1 1 C-0.67 0.67 -0.34 0.34 0 0 Z " fill="#366DA9" transform="translate(128,155)"/>
<path d="M0 0 C2.0625 0.4375 2.0625 0.4375 4 1 C4 1.66 4 2.32 4 3 C3.01 3.495 3.01 3.495 2 4 C1.34786708 6.02463255 1.34786708 6.02463255 1 8 C0.01 7.34 -0.98 6.68 -2 6 C-1.34 6 -0.68 6 0 6 C-0.2784375 4.7934375 -0.2784375 4.7934375 -0.5625 3.5625 C-0.706875 2.716875 -0.85125 1.87125 -1 1 C-0.67 0.67 -0.34 0.34 0 0 Z " fill="#094B8C" transform="translate(133,154)"/>
<path d="M0 0 C0.99 0 1.98 0 3 0 C3.99 2.64 4.98 5.28 6 8 C5.01 8 4.02 8 3 8 C0 2.25 0 2.25 0 0 Z " fill="#144574" transform="translate(83,95)"/>
<path d="M0 0 C1.32 0.33 2.64 0.66 4 1 C4 2.65 4 4.3 4 6 C3.01 6 2.02 6 1 6 C0 1.125 0 1.125 0 0 Z " fill="#164876" transform="translate(76,86)"/>
<path d="M0 0 C0.66 0 1.32 0 2 0 C0.66666667 2.66666667 -0.66666667 5.33333333 -2 8 C-2.33 8 -2.66 8 -3 8 C-3.33 6.02 -3.66 4.04 -4 2 C-2.68 2 -1.36 2 0 2 C0 1.34 0 0.68 0 0 Z " fill="#336B9E" transform="translate(135,24)"/>
<path d="M0 0 C2.49361571 1.20381448 4.68143083 2.45428722 7 4 C6.67 4.99 6.34 5.98 6 7 C1.125 2.25 1.125 2.25 0 0 Z " fill="#4E75A4" transform="translate(132,161)"/>
<path d="M0 0 C1.65 1.65 3.3 3.3 5 5 C4.01 5.33 3.02 5.66 2 6 C2 5.34 2 4.68 2 4 C0.68 3.67 -0.64 3.34 -2 3 C-1 1 -1 1 0 0 Z " fill="#4474A6" transform="translate(142,148)"/>
<path d="M0 0 C2.78637633 4.1795645 1.79562512 6.14668677 1 11 C0.67 11 0.34 11 0 11 C-0.19491452 9.54263913 -0.38069358 8.08405407 -0.5625 6.625 C-0.66691406 5.81289063 -0.77132812 5.00078125 -0.87890625 4.1640625 C-1 2 -1 2 0 0 Z " fill="#0D4782" transform="translate(143,51)"/>
<path d="M0 0 C2.5 2.3125 2.5 2.3125 5 5 C5 5.99 5 6.98 5 8 C3.0625 7.375 3.0625 7.375 1 6 C0.25 2.875 0.25 2.875 0 0 Z " fill="#5C8AB1" transform="translate(88,31)"/>
<path d="M0 0 C1.98 1.65 3.96 3.3 6 5 C5.67 5.66 5.34 6.32 5 7 C2.525 6.01 2.525 6.01 0 5 C0 3.35 0 1.7 0 0 Z " fill="#4675A2" transform="translate(82,24)"/>
<path d="M0 0 C0.99 0.33 1.98 0.66 3 1 C1.69593116 3.01920337 0.36176581 5.01924973 -1 7 C-1.33 7 -1.66 7 -2 7 C-2.125 4.625 -2.125 4.625 -2 2 C-1.34 1.34 -0.68 0.68 0 0 Z " fill="#557DAB" transform="translate(122,41)"/>
<path d="M0 0 C1.9375 0.8125 1.9375 0.8125 4 2 C4.33 2.99 4.66 3.98 5 5 C4.34 5.66 3.68 6.32 3 7 C0 2.25 0 2.25 0 0 Z " fill="#1E4369" transform="translate(70,32)"/>
</svg>
